<?xml version="1.0" encoding="UTF-8" standalone="no"?>
<!DOCTYPE svg PUBLIC "-//W3C//DTD SVG 1.1//EN"
 "http://www.w3.org/Graphics/SVG/1.1/DTD/svg11.dtd">
<!-- Generated by graphviz version 2.46.0 (20210119.1425)
 -->
<!-- Title: dependencies Pages: 1 -->
<svg width="552pt" height="284pt"
 viewBox="0.00 0.00 552.00 284.00" xmlns="http://www.w3.org/2000/svg" xmlns:xlink="http://www.w3.org/1999/xlink">
<g id="graph0" class="graph" transform="scale(1 1) rotate(0) translate(4 280)">
<title>dependencies</title>
<polygon fill="white" stroke="transparent" points="-4,4 -4,-280 548,-280 548,4 -4,4"/>
<text text-anchor="start" x="251.01" y="-42.4" font-family="sans-serif" font-weight="bold" font-size="14.00">Legend</text>
<polygon fill="#ffffb3" stroke="transparent" points="38,-10 38,-30 58,-30 58,-10 38,-10"/>
<text text-anchor="start" x="61.63" y="-15.4" font-family="sans-serif" font-size="14.00"> &#160;Declarations</text>
<polygon fill="#8dd3c7" stroke="transparent" points="151,-10 151,-30 171,-30 171,-10 151,-10"/>
<text text-anchor="start" x="174.73" y="-15.4" font-family="sans-serif" font-size="14.00"> &#160;Module</text>
<polygon fill="#80b1d3" stroke="transparent" points="237,-10 237,-30 257,-30 257,-10 237,-10"/>
<text text-anchor="start" x="260.78" y="-15.4" font-family="sans-serif" font-size="14.00"> &#160;Bootstrap</text>
<polygon fill="#fdb462" stroke="transparent" points="334,-10 334,-30 354,-30 354,-10 334,-10"/>
<text text-anchor="start" x="357.67" y="-15.4" font-family="sans-serif" font-size="14.00"> &#160;Providers</text>
<polygon fill="#fb8072" stroke="transparent" points="430,-10 430,-30 450,-30 450,-10 430,-10"/>
<text text-anchor="start" x="453.73" y="-15.4" font-family="sans-serif" font-size="14.00"> &#160;Exports</text>
<g id="clust1" class="cluster">
<title>cluster_CoreModule</title>
<polygon fill="none" stroke="black" stroke-dasharray="1,5" points="8,-70 8,-268 536,-268 536,-70 8,-70"/>
</g>
<g id="clust3" class="cluster">
<title>cluster_CoreModule_imports</title>
<polygon fill="none" stroke="black" points="24,-78 24,-130 523,-130 523,-78 24,-78"/>
</g>
<g id="clust4" class="cluster">
<title>cluster_CoreModule_exports</title>
<polygon fill="none" stroke="black" points="16,-208 16,-260 528,-260 528,-208 16,-208"/>
</g>
<!-- AccountModule -->
<g id="node1" class="node">
<title>AccountModule</title>
<polygon fill="#8dd3c7" stroke="black" points="515.48,-122 512.48,-126 491.48,-126 488.48,-122 408.52,-122 408.52,-86 515.48,-86 515.48,-122"/>
<text text-anchor="middle" x="462" y="-99.8" font-family="Times,serif" font-size="14.00">AccountModule</text>
</g>
<!-- CoreModule -->
<g id="node5" class="node">
<title>CoreModule</title>
<polygon fill="#8dd3c7" stroke="black" points="273.26,-187 270.26,-191 249.26,-191 246.26,-187 186.74,-187 186.74,-151 273.26,-151 273.26,-187"/>
<text text-anchor="middle" x="230" y="-164.8" font-family="Times,serif" font-size="14.00">CoreModule</text>
</g>
<!-- AccountModule&#45;&gt;CoreModule -->
<g id="edge1" class="edge">
<title>AccountModule&#45;&gt;CoreModule</title>
<path fill="none" stroke="black" d="M480.25,-122.27C480.25,-140.56 480.25,-166 480.25,-166 480.25,-166 283.3,-166 283.3,-166"/>
<polygon fill="black" stroke="black" points="283.3,-162.5 273.3,-166 283.3,-169.5 283.3,-162.5"/>
</g>
<!-- FriendModule -->
<g id="node2" class="node">
<title>FriendModule</title>
<polygon fill="#8dd3c7" stroke="black" points="390.1,-122 387.1,-126 366.1,-126 363.1,-122 293.9,-122 293.9,-86 390.1,-86 390.1,-122"/>
<text text-anchor="middle" x="342" y="-99.8" font-family="Times,serif" font-size="14.00">FriendModule</text>
</g>
<!-- FriendModule&#45;&gt;CoreModule -->
<g id="edge2" class="edge">
<title>FriendModule&#45;&gt;CoreModule</title>
<path fill="none" stroke="black" d="M358.02,-122.01C358.02,-138.05 358.02,-159 358.02,-159 358.02,-159 283.34,-159 283.34,-159"/>
<polygon fill="black" stroke="black" points="283.34,-155.5 273.34,-159 283.34,-162.5 283.34,-155.5"/>
</g>
<!-- GroupModule -->
<g id="node3" class="node">
<title>GroupModule</title>
<polygon fill="#8dd3c7" stroke="black" points="275.82,-122 272.82,-126 251.82,-126 248.82,-122 180.18,-122 180.18,-86 275.82,-86 275.82,-122"/>
<text text-anchor="middle" x="228" y="-99.8" font-family="Times,serif" font-size="14.00">GroupModule</text>
</g>
<!-- GroupModule&#45;&gt;CoreModule -->
<g id="edge3" class="edge">
<title>GroupModule&#45;&gt;CoreModule</title>
<path fill="none" stroke="black" d="M230,-122.11C230,-122.11 230,-140.99 230,-140.99"/>
<polygon fill="black" stroke="black" points="226.5,-140.99 230,-150.99 233.5,-140.99 226.5,-140.99"/>
</g>
<!-- LeaderboardModule -->
<g id="node4" class="node">
<title>LeaderboardModule</title>
<polygon fill="#8dd3c7" stroke="black" points="162.28,-122 159.28,-126 138.28,-126 135.28,-122 31.72,-122 31.72,-86 162.28,-86 162.28,-122"/>
<text text-anchor="middle" x="97" y="-99.8" font-family="Times,serif" font-size="14.00">LeaderboardModule</text>
</g>
<!-- LeaderboardModule&#45;&gt;CoreModule -->
<g id="edge4" class="edge">
<title>LeaderboardModule&#45;&gt;CoreModule</title>
<path fill="none" stroke="black" d="M115.88,-122.02C115.88,-139.37 115.88,-163 115.88,-163 115.88,-163 176.53,-163 176.53,-163"/>
<polygon fill="black" stroke="black" points="176.53,-166.5 186.53,-163 176.53,-159.5 176.53,-166.5"/>
</g>
<!-- AccountModule  -->
<g id="node6" class="node">
<title>AccountModule </title>
<polygon fill="#fb8072" stroke="black" points="520.48,-252 409.52,-252 409.52,-216 520.48,-216 520.48,-252"/>
<text text-anchor="middle" x="465" y="-229.8" font-family="Times,serif" font-size="14.00">AccountModule </text>
</g>
<!-- CoreModule&#45;&gt;AccountModule  -->
<g id="edge5" class="edge">
<title>CoreModule&#45;&gt;AccountModule </title>
<path fill="none" stroke="black" stroke-dasharray="5,2" d="M273.51,-173C336.33,-173 445,-173 445,-173 445,-173 445,-205.7 445,-205.7"/>
<polygon fill="black" stroke="black" points="441.5,-205.7 445,-215.7 448.5,-205.7 441.5,-205.7"/>
</g>
<!-- FriendModule  -->
<g id="node7" class="node">
<title>FriendModule </title>
<polygon fill="#fb8072" stroke="black" points="391.6,-252 292.4,-252 292.4,-216 391.6,-216 391.6,-252"/>
<text text-anchor="middle" x="342" y="-229.8" font-family="Times,serif" font-size="14.00">FriendModule </text>
</g>
<!-- CoreModule&#45;&gt;FriendModule  -->
<g id="edge6" class="edge">
<title>CoreModule&#45;&gt;FriendModule </title>
<path fill="none" stroke="black" stroke-dasharray="5,2" d="M273.5,-180C298.89,-180 325.98,-180 325.98,-180 325.98,-180 325.98,-205.72 325.98,-205.72"/>
<polygon fill="black" stroke="black" points="322.48,-205.72 325.98,-215.72 329.48,-205.72 322.48,-205.72"/>
</g>
<!-- GroupModule  -->
<g id="node8" class="node">
<title>GroupModule </title>
<polygon fill="#fb8072" stroke="black" points="274.32,-252 175.68,-252 175.68,-216 274.32,-216 274.32,-252"/>
<text text-anchor="middle" x="225" y="-229.8" font-family="Times,serif" font-size="14.00">GroupModule </text>
</g>
<!-- CoreModule&#45;&gt;GroupModule  -->
<g id="edge7" class="edge">
<title>CoreModule&#45;&gt;GroupModule </title>
<path fill="none" stroke="black" stroke-dasharray="5,2" d="M230,-187.11C230,-187.11 230,-205.99 230,-205.99"/>
<polygon fill="black" stroke="black" points="226.5,-205.99 230,-215.99 233.5,-205.99 226.5,-205.99"/>
</g>
<!-- LeaderboardModule  -->
<g id="node9" class="node">
<title>LeaderboardModule </title>
<polygon fill="#fb8072" stroke="black" points="157.78,-252 24.22,-252 24.22,-216 157.78,-216 157.78,-252"/>
<text text-anchor="middle" x="91" y="-229.8" font-family="Times,serif" font-size="14.00">LeaderboardModule </text>
</g>
<!-- CoreModule&#45;&gt;LeaderboardModule  -->
<g id="edge8" class="edge">
<title>CoreModule&#45;&gt;LeaderboardModule </title>
<path fill="none" stroke="black" stroke-dasharray="5,2" d="M186.51,-175C140.31,-175 73.87,-175 73.87,-175 73.87,-175 73.87,-205.98 73.87,-205.98"/>
<polygon fill="black" stroke="black" points="70.37,-205.98 73.87,-215.98 77.37,-205.98 70.37,-205.98"/>
</g>
</g>
</svg>
