<?xml version="1.0" encoding="UTF-8" standalone="no"?>
<!DOCTYPE svg PUBLIC "-//W3C//DTD SVG 1.1//EN"
 "http://www.w3.org/Graphics/SVG/1.1/DTD/svg11.dtd">
<!-- Generated by graphviz version 2.46.0 (20210119.1425)
 -->
<!-- Title: dependencies Pages: 1 -->
<svg width="504pt" height="211pt"
 viewBox="0.00 0.00 504.00 211.00" xmlns="http://www.w3.org/2000/svg" xmlns:xlink="http://www.w3.org/1999/xlink">
<g id="graph0" class="graph" transform="scale(1 1) rotate(0) translate(4 207)">
<title>dependencies</title>
<polygon fill="white" stroke="transparent" points="-4,4 -4,-207 500,-207 500,4 -4,4"/>
<text text-anchor="start" x="227.01" y="-42.4" font-family="sans-serif" font-weight="bold" font-size="14.00">Legend</text>
<polygon fill="#ffffb3" stroke="transparent" points="14,-10 14,-30 34,-30 34,-10 14,-10"/>
<text text-anchor="start" x="37.63" y="-15.4" font-family="sans-serif" font-size="14.00"> &#160;Declarations</text>
<polygon fill="#8dd3c7" stroke="transparent" points="127,-10 127,-30 147,-30 147,-10 127,-10"/>
<text text-anchor="start" x="150.73" y="-15.4" font-family="sans-serif" font-size="14.00"> &#160;Module</text>
<polygon fill="#80b1d3" stroke="transparent" points="213,-10 213,-30 233,-30 233,-10 213,-10"/>
<text text-anchor="start" x="236.78" y="-15.4" font-family="sans-serif" font-size="14.00"> &#160;Bootstrap</text>
<polygon fill="#fdb462" stroke="transparent" points="310,-10 310,-30 330,-30 330,-10 310,-10"/>
<text text-anchor="start" x="333.67" y="-15.4" font-family="sans-serif" font-size="14.00"> &#160;Providers</text>
<polygon fill="#fb8072" stroke="transparent" points="406,-10 406,-30 426,-30 426,-10 406,-10"/>
<text text-anchor="start" x="429.73" y="-15.4" font-family="sans-serif" font-size="14.00"> &#160;Exports</text>
<g id="clust1" class="cluster">
<title>cluster_ExtensionsModule</title>
<polygon fill="none" stroke="black" stroke-dasharray="1,5" points="126,-70 126,-195 370,-195 370,-70 126,-70"/>
</g>
<g id="clust3" class="cluster">
<title>cluster_ExtensionsModule_imports</title>
<polygon fill="none" stroke="black" points="134,-78 134,-130 362,-130 362,-78 134,-78"/>
</g>
<!-- ProfileModule -->
<g id="node1" class="node">
<title>ProfileModule</title>
<polygon fill="#8dd3c7" stroke="black" points="353.65,-122 350.65,-126 329.65,-126 326.65,-122 256.35,-122 256.35,-86 353.65,-86 353.65,-122"/>
<text text-anchor="middle" x="305" y="-99.8" font-family="Times,serif" font-size="14.00">ProfileModule</text>
</g>
<!-- ExtensionsModule -->
<g id="node3" class="node">
<title>ExtensionsModule</title>
<polygon fill="#8dd3c7" stroke="black" points="308.49,-187 305.49,-191 284.49,-191 281.49,-187 187.51,-187 187.51,-151 308.49,-151 308.49,-187"/>
<text text-anchor="middle" x="248" y="-164.8" font-family="Times,serif" font-size="14.00">ExtensionsModule</text>
</g>
<!-- ProfileModule&#45;&gt;ExtensionsModule -->
<g id="edge1" class="edge">
<title>ProfileModule&#45;&gt;ExtensionsModule</title>
<path fill="none" stroke="black" d="M282.33,-122.11C282.33,-122.11 282.33,-140.99 282.33,-140.99"/>
<polygon fill="black" stroke="black" points="278.83,-140.99 282.33,-150.99 285.83,-140.99 278.83,-140.99"/>
</g>
<!-- WalletModule -->
<g id="node2" class="node">
<title>WalletModule</title>
<polygon fill="#8dd3c7" stroke="black" points="238.37,-122 235.37,-126 214.37,-126 211.37,-122 141.63,-122 141.63,-86 238.37,-86 238.37,-122"/>
<text text-anchor="middle" x="190" y="-99.8" font-family="Times,serif" font-size="14.00">WalletModule</text>
</g>
<!-- WalletModule&#45;&gt;ExtensionsModule -->
<g id="edge2" class="edge">
<title>WalletModule&#45;&gt;ExtensionsModule</title>
<path fill="none" stroke="black" d="M212.97,-122.11C212.97,-122.11 212.97,-140.99 212.97,-140.99"/>
<polygon fill="black" stroke="black" points="209.47,-140.99 212.97,-150.99 216.47,-140.99 209.47,-140.99"/>
</g>
</g>
</svg>
