<?xml version="1.0" encoding="UTF-8" standalone="no"?>
<!DOCTYPE svg PUBLIC "-//W3C//DTD SVG 1.1//EN"
 "http://www.w3.org/Graphics/SVG/1.1/DTD/svg11.dtd">
<!-- Generated by graphviz version 2.46.0 (20210119.1425)
 -->
<!-- Title: dependencies Pages: 1 -->
<svg width="504pt" height="284pt"
 viewBox="0.00 0.00 504.00 284.00" xmlns="http://www.w3.org/2000/svg" xmlns:xlink="http://www.w3.org/1999/xlink">
<g id="graph0" class="graph" transform="scale(1 1) rotate(0) translate(4 280)">
<title>dependencies</title>
<polygon fill="white" stroke="transparent" points="-4,4 -4,-280 500,-280 500,4 -4,4"/>
<text text-anchor="start" x="227.01" y="-42.4" font-family="sans-serif" font-weight="bold" font-size="14.00">Legend</text>
<polygon fill="#ffffb3" stroke="transparent" points="14,-10 14,-30 34,-30 34,-10 14,-10"/>
<text text-anchor="start" x="37.63" y="-15.4" font-family="sans-serif" font-size="14.00"> &#160;Declarations</text>
<polygon fill="#8dd3c7" stroke="transparent" points="127,-10 127,-30 147,-30 147,-10 127,-10"/>
<text text-anchor="start" x="150.73" y="-15.4" font-family="sans-serif" font-size="14.00"> &#160;Module</text>
<polygon fill="#80b1d3" stroke="transparent" points="213,-10 213,-30 233,-30 233,-10 213,-10"/>
<text text-anchor="start" x="236.78" y="-15.4" font-family="sans-serif" font-size="14.00"> &#160;Bootstrap</text>
<polygon fill="#fdb462" stroke="transparent" points="310,-10 310,-30 330,-30 330,-10 310,-10"/>
<text text-anchor="start" x="333.67" y="-15.4" font-family="sans-serif" font-size="14.00"> &#160;Providers</text>
<polygon fill="#fb8072" stroke="transparent" points="406,-10 406,-30 426,-30 426,-10 406,-10"/>
<text text-anchor="start" x="429.73" y="-15.4" font-family="sans-serif" font-size="14.00"> &#160;Exports</text>
<g id="clust1" class="cluster">
<title>cluster_WalletModule</title>
<polygon fill="none" stroke="black" stroke-dasharray="1,5" points="111,-70 111,-268 385,-268 385,-70 111,-70"/>
</g>
<g id="clust3" class="cluster">
<title>cluster_WalletModule_imports</title>
<polygon fill="none" stroke="black" points="275,-78 275,-130 377,-130 377,-78 275,-78"/>
</g>
<g id="clust4" class="cluster">
<title>cluster_WalletModule_exports</title>
<polygon fill="none" stroke="black" points="199,-208 199,-260 313,-260 313,-208 199,-208"/>
</g>
<g id="clust6" class="cluster">
<title>cluster_WalletModule_providers</title>
<polygon fill="none" stroke="black" points="119,-78 119,-130 267,-130 267,-78 119,-78"/>
</g>
<!-- CoreModule -->
<g id="node1" class="node">
<title>CoreModule</title>
<polygon fill="#8dd3c7" stroke="black" points="369.26,-122 366.26,-126 345.26,-126 342.26,-122 282.74,-122 282.74,-86 369.26,-86 369.26,-122"/>
<text text-anchor="middle" x="326" y="-99.8" font-family="Times,serif" font-size="14.00">CoreModule</text>
</g>
<!-- WalletModule -->
<g id="node2" class="node">
<title>WalletModule</title>
<polygon fill="#8dd3c7" stroke="black" points="304.37,-187 301.37,-191 280.37,-191 277.37,-187 207.63,-187 207.63,-151 304.37,-151 304.37,-187"/>
<text text-anchor="middle" x="256" y="-164.8" font-family="Times,serif" font-size="14.00">WalletModule</text>
</g>
<!-- CoreModule&#45;&gt;WalletModule -->
<g id="edge1" class="edge">
<title>CoreModule&#45;&gt;WalletModule</title>
<path fill="none" stroke="black" d="M293.53,-122.11C293.53,-122.11 293.53,-140.99 293.53,-140.99"/>
<polygon fill="black" stroke="black" points="290.03,-140.99 293.53,-150.99 297.03,-140.99 290.03,-140.99"/>
</g>
<!-- WalletService  -->
<g id="node3" class="node">
<title>WalletService </title>
<polygon fill="#fb8072" stroke="black" points="305.29,-252 206.71,-252 206.71,-216 305.29,-216 305.29,-252"/>
<text text-anchor="middle" x="256" y="-229.8" font-family="Times,serif" font-size="14.00">WalletService </text>
</g>
<!-- WalletModule&#45;&gt;WalletService  -->
<g id="edge2" class="edge">
<title>WalletModule&#45;&gt;WalletService </title>
<path fill="none" stroke="black" stroke-dasharray="5,2" d="M256,-187.11C256,-187.11 256,-205.99 256,-205.99"/>
<polygon fill="black" stroke="black" points="252.5,-205.99 256,-215.99 259.5,-205.99 252.5,-205.99"/>
</g>
<!-- WalletService -->
<g id="node4" class="node">
<title>WalletService</title>
<ellipse fill="#fdb462" stroke="black" cx="193" cy="-104" rx="65.96" ry="18"/>
<text text-anchor="middle" x="193" y="-99.8" font-family="Times,serif" font-size="14.00">WalletService</text>
</g>
<!-- WalletService&#45;&gt;WalletModule -->
<g id="edge3" class="edge">
<title>WalletService&#45;&gt;WalletModule</title>
<path fill="none" stroke="black" d="M233.15,-118.43C233.15,-118.43 233.15,-140.89 233.15,-140.89"/>
<polygon fill="black" stroke="black" points="229.65,-140.89 233.15,-150.89 236.65,-140.89 229.65,-140.89"/>
</g>
</g>
</svg>
