<?xml version="1.0" encoding="UTF-8" standalone="no"?>
<!DOCTYPE svg PUBLIC "-//W3C//DTD SVG 1.1//EN"
 "http://www.w3.org/Graphics/SVG/1.1/DTD/svg11.dtd">
<!-- Generated by graphviz version 2.46.0 (20210119.1425)
 -->
<!-- Title: dependencies Pages: 1 -->
<svg width="504pt" height="284pt"
 viewBox="0.00 0.00 504.00 284.00" xmlns="http://www.w3.org/2000/svg" xmlns:xlink="http://www.w3.org/1999/xlink">
<g id="graph0" class="graph" transform="scale(1 1) rotate(0) translate(4 280)">
<title>dependencies</title>
<polygon fill="white" stroke="transparent" points="-4,4 -4,-280 500,-280 500,4 -4,4"/>
<text text-anchor="start" x="227.01" y="-42.4" font-family="sans-serif" font-weight="bold" font-size="14.00">Legend</text>
<polygon fill="#ffffb3" stroke="transparent" points="14,-10 14,-30 34,-30 34,-10 14,-10"/>
<text text-anchor="start" x="37.63" y="-15.4" font-family="sans-serif" font-size="14.00"> &#160;Declarations</text>
<polygon fill="#8dd3c7" stroke="transparent" points="127,-10 127,-30 147,-30 147,-10 127,-10"/>
<text text-anchor="start" x="150.73" y="-15.4" font-family="sans-serif" font-size="14.00"> &#160;Module</text>
<polygon fill="#80b1d3" stroke="transparent" points="213,-10 213,-30 233,-30 233,-10 213,-10"/>
<text text-anchor="start" x="236.78" y="-15.4" font-family="sans-serif" font-size="14.00"> &#160;Bootstrap</text>
<polygon fill="#fdb462" stroke="transparent" points="310,-10 310,-30 330,-30 330,-10 310,-10"/>
<text text-anchor="start" x="333.67" y="-15.4" font-family="sans-serif" font-size="14.00"> &#160;Providers</text>
<polygon fill="#fb8072" stroke="transparent" points="406,-10 406,-30 426,-30 426,-10 406,-10"/>
<text text-anchor="start" x="429.73" y="-15.4" font-family="sans-serif" font-size="14.00"> &#160;Exports</text>
<g id="clust1" class="cluster">
<title>cluster_AccountModule</title>
<polygon fill="none" stroke="black" stroke-dasharray="1,5" points="93.5,-70 93.5,-268 402.5,-268 402.5,-70 93.5,-70"/>
</g>
<g id="clust4" class="cluster">
<title>cluster_AccountModule_exports</title>
<polygon fill="none" stroke="black" points="177.5,-208 177.5,-260 301.5,-260 301.5,-208 177.5,-208"/>
</g>
<g id="clust6" class="cluster">
<title>cluster_AccountModule_providers</title>
<polygon fill="none" stroke="black" points="101.5,-78 101.5,-130 394.5,-130 394.5,-78 101.5,-78"/>
</g>
<!-- AccountService  -->
<g id="node1" class="node">
<title>AccountService </title>
<polygon fill="#fb8072" stroke="black" points="293.9,-252 185.1,-252 185.1,-216 293.9,-216 293.9,-252"/>
<text text-anchor="middle" x="239.5" y="-229.8" font-family="Times,serif" font-size="14.00">AccountService </text>
</g>
<!-- AccountModule -->
<g id="node2" class="node">
<title>AccountModule</title>
<polygon fill="#8dd3c7" stroke="black" points="292.98,-187 289.98,-191 268.98,-191 265.98,-187 186.02,-187 186.02,-151 292.98,-151 292.98,-187"/>
<text text-anchor="middle" x="239.5" y="-164.8" font-family="Times,serif" font-size="14.00">AccountModule</text>
</g>
<!-- AccountModule&#45;&gt;AccountService  -->
<g id="edge1" class="edge">
<title>AccountModule&#45;&gt;AccountService </title>
<path fill="none" stroke="black" stroke-dasharray="5,2" d="M239.5,-187.11C239.5,-187.11 239.5,-205.99 239.5,-205.99"/>
<polygon fill="black" stroke="black" points="236,-205.99 239.5,-215.99 243,-205.99 236,-205.99"/>
</g>
<!-- AccountService -->
<g id="node3" class="node">
<title>AccountService</title>
<ellipse fill="#fdb462" stroke="black" cx="313.5" cy="-104" rx="72.91" ry="18"/>
<text text-anchor="middle" x="313.5" y="-99.8" font-family="Times,serif" font-size="14.00">AccountService</text>
</g>
<!-- AccountService&#45;&gt;AccountModule -->
<g id="edge2" class="edge">
<title>AccountService&#45;&gt;AccountModule</title>
<path fill="none" stroke="black" d="M266.89,-118.1C266.89,-118.1 266.89,-140.72 266.89,-140.72"/>
<polygon fill="black" stroke="black" points="263.39,-140.72 266.89,-150.72 270.39,-140.72 263.39,-140.72"/>
</g>
<!-- JwtStrategy -->
<g id="node4" class="node">
<title>JwtStrategy</title>
<ellipse fill="#fdb462" stroke="black" cx="166.5" cy="-104" rx="56.76" ry="18"/>
<text text-anchor="middle" x="166.5" y="-99.8" font-family="Times,serif" font-size="14.00">JwtStrategy</text>
</g>
<!-- JwtStrategy&#45;&gt;AccountModule -->
<g id="edge3" class="edge">
<title>JwtStrategy&#45;&gt;AccountModule</title>
<path fill="none" stroke="black" d="M204.57,-117.47C204.57,-117.47 204.57,-140.86 204.57,-140.86"/>
<polygon fill="black" stroke="black" points="201.07,-140.86 204.57,-150.86 208.07,-140.86 201.07,-140.86"/>
</g>
</g>
</svg>
