<?xml version="1.0" encoding="UTF-8" standalone="no"?>
<!DOCTYPE svg PUBLIC "-//W3C//DTD SVG 1.1//EN"
 "http://www.w3.org/Graphics/SVG/1.1/DTD/svg11.dtd">
<!-- Generated by graphviz version 2.46.0 (20210119.1425)
 -->
<!-- Title: dependencies Pages: 1 -->
<svg width="504pt" height="211pt"
 viewBox="0.00 0.00 504.00 211.00" xmlns="http://www.w3.org/2000/svg" xmlns:xlink="http://www.w3.org/1999/xlink">
<g id="graph0" class="graph" transform="scale(1 1) rotate(0) translate(4 207)">
<title>dependencies</title>
<polygon fill="white" stroke="transparent" points="-4,4 -4,-207 500,-207 500,4 -4,4"/>
<text text-anchor="start" x="227.01" y="-42.4" font-family="sans-serif" font-weight="bold" font-size="14.00">Legend</text>
<polygon fill="#ffffb3" stroke="transparent" points="14,-10 14,-30 34,-30 34,-10 14,-10"/>
<text text-anchor="start" x="37.63" y="-15.4" font-family="sans-serif" font-size="14.00"> &#160;Declarations</text>
<polygon fill="#8dd3c7" stroke="transparent" points="127,-10 127,-30 147,-30 147,-10 127,-10"/>
<text text-anchor="start" x="150.73" y="-15.4" font-family="sans-serif" font-size="14.00"> &#160;Module</text>
<polygon fill="#80b1d3" stroke="transparent" points="213,-10 213,-30 233,-30 233,-10 213,-10"/>
<text text-anchor="start" x="236.78" y="-15.4" font-family="sans-serif" font-size="14.00"> &#160;Bootstrap</text>
<polygon fill="#fdb462" stroke="transparent" points="310,-10 310,-30 330,-30 330,-10 310,-10"/>
<text text-anchor="start" x="333.67" y="-15.4" font-family="sans-serif" font-size="14.00"> &#160;Providers</text>
<polygon fill="#fb8072" stroke="transparent" points="406,-10 406,-30 426,-30 426,-10 406,-10"/>
<text text-anchor="start" x="429.73" y="-15.4" font-family="sans-serif" font-size="14.00"> &#160;Exports</text>
<g id="clust1" class="cluster">
<title>cluster_AppModule</title>
<polygon fill="none" stroke="black" stroke-dasharray="1,5" points="50.5,-70 50.5,-195 445.5,-195 445.5,-70 50.5,-70"/>
</g>
<g id="clust3" class="cluster">
<title>cluster_AppModule_imports</title>
<polygon fill="none" stroke="black" points="196.5,-78 196.5,-130 437.5,-130 437.5,-78 196.5,-78"/>
</g>
<g id="clust6" class="cluster">
<title>cluster_AppModule_providers</title>
<polygon fill="none" stroke="black" points="58.5,-78 58.5,-130 188.5,-130 188.5,-78 58.5,-78"/>
</g>
<!-- CoreModule -->
<g id="node1" class="node">
<title>CoreModule</title>
<polygon fill="#8dd3c7" stroke="black" points="429.76,-122 426.76,-126 405.76,-126 402.76,-122 343.24,-122 343.24,-86 429.76,-86 429.76,-122"/>
<text text-anchor="middle" x="386.5" y="-99.8" font-family="Times,serif" font-size="14.00">CoreModule</text>
</g>
<!-- AppModule -->
<g id="node3" class="node">
<title>AppModule</title>
<polygon fill="#8dd3c7" stroke="black" points="306.16,-187 303.16,-191 282.16,-191 279.16,-187 222.84,-187 222.84,-151 306.16,-151 306.16,-187"/>
<text text-anchor="middle" x="264.5" y="-164.8" font-family="Times,serif" font-size="14.00">AppModule</text>
</g>
<!-- CoreModule&#45;&gt;AppModule -->
<g id="edge1" class="edge">
<title>CoreModule&#45;&gt;AppModule</title>
<path fill="none" stroke="black" d="M386.5,-122.11C386.5,-141.34 386.5,-169 386.5,-169 386.5,-169 316.49,-169 316.49,-169"/>
<polygon fill="black" stroke="black" points="316.49,-165.5 306.49,-169 316.49,-172.5 316.49,-165.5"/>
</g>
<!-- ExtensionsModule -->
<g id="node2" class="node">
<title>ExtensionsModule</title>
<polygon fill="#8dd3c7" stroke="black" points="324.99,-122 321.99,-126 300.99,-126 297.99,-122 204.01,-122 204.01,-86 324.99,-86 324.99,-122"/>
<text text-anchor="middle" x="264.5" y="-99.8" font-family="Times,serif" font-size="14.00">ExtensionsModule</text>
</g>
<!-- ExtensionsModule&#45;&gt;AppModule -->
<g id="edge2" class="edge">
<title>ExtensionsModule&#45;&gt;AppModule</title>
<path fill="none" stroke="black" d="M264.5,-122.11C264.5,-122.11 264.5,-140.99 264.5,-140.99"/>
<polygon fill="black" stroke="black" points="261,-140.99 264.5,-150.99 268,-140.99 261,-140.99"/>
</g>
<!-- AppService -->
<g id="node4" class="node">
<title>AppService</title>
<ellipse fill="#fdb462" stroke="black" cx="123.5" cy="-104" rx="56.74" ry="18"/>
<text text-anchor="middle" x="123.5" y="-99.8" font-family="Times,serif" font-size="14.00">AppService</text>
</g>
<!-- AppService&#45;&gt;AppModule -->
<g id="edge3" class="edge">
<title>AppService&#45;&gt;AppModule</title>
<path fill="none" stroke="black" d="M123.5,-122.11C123.5,-141.34 123.5,-169 123.5,-169 123.5,-169 212.58,-169 212.58,-169"/>
<polygon fill="black" stroke="black" points="212.58,-172.5 222.58,-169 212.58,-165.5 212.58,-172.5"/>
</g>
</g>
</svg>
